<svg width="14" height="14" viewBox="0 0 14 14" fill="none" xmlns="http://www.w3.org/2000/svg">
<circle cx="7" cy="7" r="7" fill="#FFFAFA"/>
<mask id="path-2-inside-1_260_31" fill="white">
<path d="M11.2551 2.75999C10.4151 1.91974 9.34477 1.34746 8.17949 1.11555C7.0142 0.883632 5.80632 1.00249 4.70859 1.4571C3.61086 1.91171 2.6726 2.68163 2.01248 3.66951C1.35234 4.65739 1 5.81884 1 7.00698C1 8.19512 1.35234 9.35657 2.01248 10.3444C2.6726 11.3323 3.61086 12.1023 4.70859 12.5568C5.80632 13.0114 7.0142 13.1303 8.17949 12.8984C9.34477 12.6665 10.4151 12.0942 11.2551 11.254C12.3817 10.1274 13.0145 8.59956 13.0145 7.00643C13.0145 5.4133 12.3817 3.88542 11.2551 2.7589V2.75999ZM12.0187 7.55946C12.0099 7.45486 12.0315 7.34994 12.0808 7.25731C12.2183 6.94971 12.3557 6.6432 12.5171 6.34105C12.6579 7.42175 12.4676 8.5197 11.9718 9.49016C11.8987 9.09857 11.8343 8.72661 11.7841 8.34156C11.7784 8.31447 11.7791 8.2864 11.7863 8.25965C11.7935 8.23291 11.807 8.20826 11.8256 8.18776C11.9055 8.10511 11.9648 8.00466 11.9984 7.89467C12.0319 7.78469 12.0388 7.6683 12.0187 7.5551V7.55946ZM6.89198 12.5204C6.95541 12.3278 6.97987 12.1246 6.96397 11.9226C6.97812 11.8504 6.96683 11.7756 6.93203 11.7107C6.89724 11.6459 6.84107 11.5952 6.77308 11.567C6.44843 11.3753 6.16545 11.1205 5.94081 10.8177C5.91354 10.786 5.89391 10.7457 5.84264 10.7457C5.79137 10.7457 5.80119 10.7086 5.80119 10.6748C5.7881 10.5406 5.77174 10.4075 5.76192 10.2733C5.75977 10.1991 5.78064 10.126 5.82164 10.0641C5.86266 10.0022 5.9218 9.95454 5.99099 9.92757C6.07607 9.89593 6.12734 9.86321 6.09134 9.76068C6.08418 9.72428 6.08681 9.68663 6.09898 9.6516C6.10364 9.63224 6.10317 9.61199 6.09763 9.59286C6.09208 9.57373 6.08164 9.55638 6.06734 9.54252C5.93208 9.40181 5.93208 9.39853 5.81646 9.5567C5.77937 9.60687 5.75101 9.62105 5.70084 9.57415C5.56297 9.44696 5.39646 9.35491 5.21544 9.30582C5.15435 9.28836 5.12708 9.25564 5.13799 9.19674C5.14367 9.1601 5.13819 9.1226 5.12223 9.08912C5.10627 9.05566 5.08059 9.02777 5.04855 9.00912C4.93453 8.91015 4.7944 8.84616 4.64495 8.82478C4.61198 8.8234 4.58013 8.81241 4.55333 8.79315C4.41475 8.68855 4.26098 8.60579 4.09738 8.54772C4.06469 8.52789 4.0262 8.5198 3.9883 8.52481C3.74563 8.53184 3.50592 8.47021 3.29674 8.34701C3.19032 8.32248 3.09773 8.25726 3.03881 8.16531C2.9799 8.07337 2.95932 7.962 2.9815 7.85507C2.98763 7.75991 2.95587 7.66619 2.89315 7.59437C2.75738 7.42406 2.6757 7.21702 2.65863 6.99989C2.65863 6.84936 2.53319 6.82427 2.44047 6.76319C2.40884 6.74137 2.40229 6.76973 2.4012 6.79482C2.36624 6.95562 2.39024 7.12364 2.46883 7.26822C2.5456 7.39021 2.61446 7.517 2.67499 7.64782C2.68699 7.67072 2.70771 7.69581 2.68044 7.71763C2.65317 7.73944 2.6379 7.71763 2.61936 7.70345C2.46556 7.57583 2.29212 7.47329 2.14596 7.33476C2.13115 7.32476 2.11904 7.31127 2.11067 7.29548C2.10229 7.2797 2.09793 7.26209 2.09796 7.24423C2.14377 6.73592 2.03251 6.23634 2.03906 5.73348C2.02404 5.48271 2.08525 5.23325 2.21468 5.01793C2.33199 4.82095 2.41636 4.60615 2.46447 4.382C2.47974 4.32636 2.49719 4.28164 2.57355 4.29473C2.62372 4.30346 2.62372 4.27073 2.62372 4.23583V3.81915C2.62372 3.78206 2.62372 3.74607 2.65863 3.72316C2.76278 3.64219 2.83345 3.52569 2.85715 3.39592C2.87822 3.31203 2.92563 3.2371 2.99241 3.18213C3.08294 3.11123 3.15275 3.02069 3.23456 2.94434C3.84632 2.36753 4.58275 1.93941 5.38669 1.6932C5.42487 1.6812 5.46305 1.66266 5.46305 1.73247C5.46305 1.76301 5.50122 1.76301 5.52522 1.77174C5.6343 1.80773 5.74338 1.84373 5.85246 1.88082C5.92887 1.90169 6.00948 1.90169 6.08589 1.88082C6.19215 1.85902 6.30269 1.87565 6.39785 1.92772C6.44476 1.95499 6.46657 1.94299 6.48075 1.89172C6.50039 1.823 6.53529 1.75756 6.54947 1.68666C6.56027 1.64896 6.57887 1.61394 6.60404 1.58388C6.62922 1.55382 6.66043 1.52938 6.69564 1.51213C6.74254 1.4794 6.76872 1.49031 6.7709 1.54812C6.77308 1.60594 6.7709 1.66593 6.7709 1.72592C6.7709 1.835 6.79817 1.85791 6.90616 1.84918C6.99451 1.84264 7.08178 1.82737 7.17013 1.81646C7.19304 1.81646 7.21703 1.80664 7.23231 1.83173C7.24758 1.85682 7.22576 1.87318 7.21158 1.88954C7.14613 1.96262 7.0785 2.03462 7.01415 2.1077C7.00368 2.11998 6.99032 2.1295 6.97529 2.1354C6.96026 2.1413 6.94401 2.1434 6.92798 2.14151C6.88871 2.14151 6.84944 2.14151 6.81017 2.14151C6.67927 2.14151 6.67709 2.14151 6.71309 2.26259C6.72618 2.3095 6.71309 2.32913 6.66619 2.33677C6.60183 2.34658 6.53747 2.36513 6.47312 2.37385C6.27537 2.39385 6.09014 2.47992 5.94736 2.61819C5.87999 2.67865 5.8295 2.75558 5.80082 2.84144C5.77213 2.9273 5.76624 3.01914 5.78374 3.10795C5.79028 3.13631 5.8001 3.15049 5.82737 3.14504C5.90984 3.1418 5.9905 3.16986 6.05316 3.22358C6.11569 3.26568 6.18051 3.30428 6.24732 3.3392C6.32775 3.37334 6.39363 3.43462 6.4335 3.51236C6.47337 3.5901 6.48469 3.67937 6.46548 3.76461C6.45808 3.80936 6.46535 3.85531 6.48618 3.8956C6.50702 3.9359 6.54031 3.96838 6.5811 3.98822C6.61601 4.01222 6.63128 4.01222 6.65746 3.97731C6.68743 3.94361 6.70985 3.90388 6.7232 3.86079C6.73656 3.81771 6.74056 3.77227 6.73491 3.72752C6.7235 3.68602 6.72845 3.64172 6.74875 3.60377C6.76904 3.56581 6.80313 3.53709 6.84398 3.52354C6.92133 3.49614 6.98557 3.44069 7.02396 3.36815C7.06235 3.29562 7.07208 3.21132 7.05123 3.13195C7.04416 3.09715 7.04529 3.06118 7.05457 3.02691C7.06385 2.99262 7.08101 2.96099 7.10468 2.93452C7.15554 2.85684 7.1779 2.76394 7.16795 2.67164C7.16795 2.62037 7.16795 2.57019 7.2334 2.55601C7.3152 2.53747 7.38502 2.43494 7.4821 2.52002C7.49907 2.5357 7.51816 2.54892 7.53882 2.55929C7.6168 2.59312 7.6837 2.64818 7.73191 2.71818C7.78013 2.78819 7.80771 2.87033 7.81151 2.95524C7.81385 2.98408 7.82405 3.01173 7.841 3.03518C7.85796 3.05863 7.88102 3.07696 7.90768 3.08822C7.93434 3.09947 7.96357 3.10319 7.99219 3.09898C8.02083 3.09475 8.04775 3.08278 8.07003 3.06432C8.25328 2.95524 8.2631 2.95524 8.30782 3.16467C8.31975 3.24495 8.3502 3.32133 8.39678 3.3878C8.44335 3.45426 8.50476 3.50895 8.57616 3.54754C8.74575 3.6427 8.88551 3.78321 8.97975 3.95332C9.01138 4.00785 9.01684 4.04385 8.9732 4.08966C8.92957 4.13548 8.8903 4.21292 8.82159 4.25546C8.75084 4.30224 8.66591 4.3227 8.58161 4.31328C8.34382 4.28928 8.10385 4.27946 7.86824 4.23474C7.8485 4.22999 7.82784 4.23086 7.80857 4.23721C7.78931 4.24357 7.77219 4.25518 7.75916 4.27073C7.68941 4.33819 7.62522 4.41114 7.56718 4.48889C7.68214 4.47394 7.79446 4.4431 7.90096 4.39727C7.98374 4.37747 8.07049 4.38202 8.15075 4.41036C8.19765 4.42017 8.18893 4.45181 8.18238 4.48671C8.15075 4.69287 8.15075 4.69287 8.33727 4.79977L8.4998 4.89248C8.51725 4.9023 8.5358 4.91212 8.53471 4.93612C8.53362 4.96011 8.51289 4.96666 8.49326 4.97102C8.29738 5.01102 8.10673 5.07324 7.92496 5.15646C7.87369 5.17936 7.82897 5.139 7.78861 5.11719C7.69262 5.06374 7.61299 5.11719 7.541 5.15646C7.493 5.18154 7.50937 5.26008 7.51155 5.31353C7.51155 5.39643 7.4821 5.42261 7.40247 5.41715C7.35011 5.4117 7.29339 5.4237 7.2443 5.41715C7.16389 5.40488 7.08166 5.41533 7.00687 5.44734C6.93209 5.47933 6.86773 5.53159 6.82108 5.59822C6.65343 5.77121 6.54891 5.99561 6.52438 6.23525C6.51566 6.32033 6.48511 6.37159 6.39458 6.38687C6.31359 6.40134 6.23429 6.42401 6.15788 6.45449C6.08479 6.48285 5.98881 6.4654 5.93972 6.55048C5.83896 6.69793 5.79624 6.87739 5.81973 7.05443C5.82546 7.09672 5.83646 7.13812 5.85246 7.17769C5.87381 7.236 5.881 7.29857 5.87341 7.36021C5.86583 7.42184 5.84369 7.4808 5.80883 7.53219C5.78483 7.58455 5.75865 7.58019 5.72047 7.54419C5.60714 7.44305 5.52217 7.31409 5.47395 7.17005C5.45146 7.10355 5.41027 7.04493 5.35534 7.00121C5.3004 6.95749 5.23403 6.93051 5.16417 6.92353C4.97883 6.87822 4.78387 6.89351 4.60787 6.96716C4.5286 6.98803 4.44504 6.98613 4.3668 6.96171C4.27731 6.95759 4.18788 6.97117 4.10365 7.00168C4.01942 7.03219 3.94204 7.07903 3.87595 7.13951C3.84759 7.16023 3.85195 7.19078 3.85086 7.22023C3.84684 7.43871 3.85559 7.65724 3.87704 7.8747C3.87971 7.91069 3.89612 7.94427 3.92285 7.96851C3.98612 8.03068 4.05156 8.09068 4.11047 8.15613C4.12916 8.17844 4.15308 8.19581 4.18011 8.20665C4.20713 8.2175 4.23642 8.2215 4.26536 8.2183C4.29732 8.21995 4.329 8.21159 4.35597 8.19438C4.38296 8.17718 4.4039 8.15198 4.41589 8.12231C4.46191 8.02971 4.53284 7.95178 4.62069 7.89725C4.70856 7.84272 4.80988 7.81376 4.91329 7.81362C4.97655 7.81362 4.97219 7.83871 4.96128 7.8867C4.90775 8.0798 4.83465 8.26693 4.74312 8.44518C4.70931 8.51609 4.73004 8.53027 4.79875 8.53572C4.96637 8.52972 5.13361 8.55526 5.29179 8.61098C5.34415 8.63607 5.37142 8.66225 5.36597 8.72006C5.36508 8.73641 5.36508 8.7528 5.36597 8.76915C5.3736 9.03966 5.37469 9.03748 5.59721 9.19019C5.61609 9.20435 5.63905 9.21201 5.66266 9.21201C5.68626 9.21201 5.70923 9.20435 5.72811 9.19019C5.87427 9.10838 5.87864 9.10729 6.00844 9.22401C6.0728 9.28291 6.11752 9.28946 6.16988 9.21528C6.1786 9.20219 6.19496 9.19347 6.20369 9.18038C6.26425 9.10886 6.34035 9.05214 6.42617 9.01452C6.512 8.9769 6.60529 8.95938 6.69891 8.96331C6.75018 8.95567 6.77417 8.97094 6.76872 9.02548C6.76327 9.08002 6.75999 9.13456 6.75454 9.20874C6.84071 9.14983 6.91379 9.09966 6.98361 9.05057C6.99885 9.03875 7.01669 9.0307 7.03566 9.0271C7.05462 9.0235 7.07415 9.02444 7.09268 9.02985C7.35885 9.10145 7.63139 9.14676 7.90641 9.16511C7.95614 9.16547 8.00381 9.185 8.03949 9.21964L8.05476 9.23164C8.29761 9.469 8.6083 9.62492 8.94375 9.67778C9.01465 9.68759 9.04083 9.72795 9.06156 9.79558C9.09209 9.86577 9.10112 9.94344 9.08753 10.0188C9.07395 10.0941 9.03834 10.1637 8.9852 10.2188C9.01138 10.2548 9.03974 10.2406 9.06374 10.2406C9.31026 10.2406 9.55678 10.2483 9.8022 10.2406C9.83615 10.2387 9.87006 10.2451 9.90103 10.2591C9.93199 10.2732 9.95909 10.2945 9.98 10.3213C10.0435 10.3978 10.1112 10.4706 10.1829 10.5395C10.2363 10.5897 10.2374 10.6235 10.1916 10.6846C10.0693 10.8406 9.92189 10.9752 9.7553 11.0827C9.652 11.1471 9.5718 11.2426 9.52623 11.3554C9.48478 11.4722 9.4183 11.5785 9.33144 11.6668C9.24457 11.7552 9.13943 11.8236 9.02338 11.867C8.90676 11.9259 8.78032 11.9629 8.65033 11.9761C8.61006 11.9739 8.56999 11.9829 8.53455 12.0022C8.49913 12.0214 8.46973 12.0502 8.44963 12.0851C8.42886 12.1185 8.39946 12.1457 8.36454 12.1637L7.78424 12.4986C7.72012 12.5241 7.65141 12.536 7.58245 12.5335C7.37042 12.5594 7.15678 12.5696 6.94325 12.564C6.91816 12.564 6.85707 12.5782 6.88762 12.5215L6.89198 12.5204ZM6.34658 1.70629C6.35749 1.76519 6.32913 1.78483 6.26914 1.78483C6.10506 1.78242 5.94123 1.7715 5.77828 1.7521C5.69975 1.74556 5.69211 1.69102 5.68666 1.64302C5.6812 1.59503 5.73356 1.5983 5.76083 1.59176C6.00243 1.53514 6.24775 1.49577 6.49493 1.47395C6.48882 1.48991 6.47961 1.5045 6.46781 1.51686C6.45601 1.52922 6.44188 1.5391 6.42621 1.54594C6.39704 1.56006 6.37338 1.58348 6.35898 1.61249C6.34457 1.64152 6.3402 1.67451 6.34658 1.70629ZM9.83711 2.74581C9.88075 2.83783 9.89776 2.94023 9.8862 3.04142C9.88675 3.05926 9.88321 3.077 9.87583 3.09326C9.86846 3.10952 9.85745 3.12388 9.84365 3.13522C9.74221 3.22685 9.74657 3.22249 9.6375 3.13522C9.30967 2.84747 9.01908 2.51988 8.7725 2.16006C8.65524 2.02796 8.54666 1.88841 8.44744 1.74229C8.40927 1.67902 8.31982 1.66702 8.25001 1.61794C8.26713 1.61009 8.28572 1.60603 8.30455 1.60603C8.32338 1.60603 8.34198 1.61009 8.35909 1.61794C8.90595 1.75728 9.42881 1.9779 9.91019 2.27241C9.97564 2.31168 9.98764 2.34876 9.95491 2.40985C9.91019 2.50038 9.90801 2.61055 9.82293 2.68036C9.79675 2.70109 9.81966 2.72945 9.83711 2.74581ZM9.44006 4.85758C9.41388 4.87721 9.38989 4.85758 9.36807 4.84667C9.3141 4.80605 9.25239 4.77687 9.18675 4.76092C9.12109 4.74499 9.05289 4.74261 8.98629 4.75395H8.90776C8.73323 4.75395 8.70814 4.73432 8.69614 4.55979C8.69614 4.54998 8.69614 4.53689 8.69614 4.53143C8.77323 4.45603 8.85848 4.38945 8.9503 4.33291C8.99175 4.30019 9.02993 4.34164 9.0681 4.35363C9.1663 4.38599 9.25343 4.44526 9.31957 4.52471C9.38573 4.60417 9.42823 4.7006 9.44224 4.80304C9.44224 4.82267 9.45861 4.8434 9.44224 4.85649L9.44006 4.85758ZM8.382 2.13061C8.41146 2.1765 8.42711 2.22988 8.42711 2.28441C8.42711 2.33894 8.41146 2.39232 8.382 2.43821C8.35909 2.46002 8.33946 2.44584 8.31982 2.43821L8.13875 2.35313L8.22383 2.57129C8.2289 2.57985 8.23186 2.58949 8.23243 2.59943C8.233 2.60936 8.23117 2.61929 8.22712 2.62838C8.22306 2.63746 8.21687 2.64544 8.20909 2.65163C8.20131 2.65784 8.19214 2.66207 8.18238 2.664C8.0733 2.70654 7.97077 2.73599 7.87587 2.62037C7.74382 2.4918 7.58358 2.39581 7.40792 2.34004C7.33375 2.30622 7.32284 2.27241 7.38611 2.22332C7.47576 2.13291 7.52995 2.01329 7.53882 1.88627C7.54109 1.86415 7.53873 1.8418 7.5319 1.82065C7.52507 1.79949 7.51392 1.77997 7.49916 1.76336C7.48439 1.74675 7.46631 1.73337 7.4461 1.72411C7.42589 1.71485 7.40397 1.7099 7.38174 1.70956C7.25412 1.70956 7.12541 1.70956 6.99779 1.70956C6.96615 1.70956 6.91489 1.73247 6.90725 1.6812C6.89961 1.62993 6.8778 1.57212 6.93343 1.5274C6.96019 1.50103 6.99215 1.48053 7.02726 1.4672C7.06238 1.45387 7.09989 1.44799 7.13741 1.44995C7.24649 1.46304 7.35556 1.46304 7.47119 1.47177C7.53793 1.47347 7.60361 1.48898 7.66406 1.51733C7.72451 1.54568 7.77843 1.58625 7.82242 1.63648C7.98277 1.82191 8.20093 1.95717 8.382 2.12952V2.13061ZM8.14857 8.80296C8.13657 8.84878 8.18347 8.92731 8.11475 8.93713C8.04603 8.94695 8.05912 8.86077 8.04167 8.81605C8.01113 8.73752 7.99368 8.65462 7.96968 8.57281C7.96422 8.55317 7.95877 8.53463 7.9784 8.51936C7.99804 8.50409 8.0144 8.51936 8.03185 8.52808C8.07582 8.54217 8.11259 8.57282 8.13438 8.61354C8.15616 8.65424 8.16125 8.70184 8.14857 8.74624C8.15011 8.76366 8.15011 8.78118 8.14857 8.7986V8.80296ZM7.75807 8.38192C7.75807 8.42882 7.69807 8.4201 7.66426 8.43646C7.64048 8.44644 7.61607 8.45483 7.59117 8.46155C7.47337 8.50081 7.41556 8.46155 7.38611 8.34156C7.38611 8.32083 7.37847 8.30011 7.40029 8.29138C7.45374 8.26739 7.50937 8.24666 7.55845 8.22594C7.59967 8.23051 7.64005 8.24078 7.67844 8.25648C7.70136 8.26879 7.72073 8.2868 7.73467 8.30877C7.74862 8.33074 7.75667 8.35594 7.75807 8.38192ZM7.30866 8.27284C7.18368 8.35443 7.03539 8.39275 6.88653 8.38192C6.8189 8.36883 6.73272 8.41682 6.70545 8.30884C6.69782 8.27938 6.69564 8.25975 6.72509 8.24448C6.8099 8.18871 6.90679 8.15398 7.00771 8.14316C7.10864 8.13235 7.21069 8.14576 7.30539 8.1823C7.3752 8.21612 7.34793 8.24121 7.30866 8.27393V8.27284ZM6.33459 8.19976C6.29351 8.2129 6.24911 8.21113 6.20921 8.19478C6.16931 8.17842 6.13646 8.14851 6.11643 8.11031C6.05724 8.03472 5.98294 7.97232 5.89827 7.92706C5.88183 7.91779 5.86365 7.91204 5.84488 7.91016C5.8261 7.90829 5.80713 7.91033 5.78919 7.91615C5.66598 7.93257 5.54468 7.96107 5.42705 8.00123C5.31797 8.03832 5.29615 7.94778 5.2547 7.89215C5.21325 7.83652 5.28416 7.81907 5.30924 7.78308C5.4325 7.63036 5.60267 7.674 5.75429 7.70018C6.06576 7.76495 6.35874 7.89876 6.61165 8.09177C6.63237 8.10595 6.66291 8.11686 6.6531 8.14958C6.64328 8.1823 6.61165 8.17685 6.58765 8.17685C6.52875 8.17685 6.46984 8.17685 6.40985 8.17685V8.19976C6.38392 8.20093 6.35807 8.20349 6.3324 8.20739L6.33459 8.19976ZM6.36076 8.37865C6.36076 8.40373 6.33677 8.4081 6.31822 8.41246C6.24514 8.42991 6.17206 8.44737 6.10007 8.46155C6.01633 8.43908 5.94067 8.39332 5.88191 8.32956C5.87318 8.3012 5.88191 8.28484 5.91354 8.28375C5.94517 8.28266 5.98553 8.28375 6.02262 8.28375C6.12178 8.28378 6.22011 8.3019 6.31277 8.3372C6.33459 8.34265 6.35858 8.3481 6.3564 8.37865H6.36076Z"/>
</mask>
<path d="M11.2551 2.75999C10.4151 1.91974 9.34477 1.34746 8.17949 1.11555C7.0142 0.883632 5.80632 1.00249 4.70859 1.4571C3.61086 1.91171 2.6726 2.68163 2.01248 3.66951C1.35234 4.65739 1 5.81884 1 7.00698C1 8.19512 1.35234 9.35657 2.01248 10.3444C2.6726 11.3323 3.61086 12.1023 4.70859 12.5568C5.80632 13.0114 7.0142 13.1303 8.17949 12.8984C9.34477 12.6665 10.4151 12.0942 11.2551 11.254C12.3817 10.1274 13.0145 8.59956 13.0145 7.00643C13.0145 5.4133 12.3817 3.88542 11.2551 2.7589V2.75999ZM12.0187 7.55946C12.0099 7.45486 12.0315 7.34994 12.0808 7.25731C12.2183 6.94971 12.3557 6.6432 12.5171 6.34105C12.6579 7.42175 12.4676 8.5197 11.9718 9.49016C11.8987 9.09857 11.8343 8.72661 11.7841 8.34156C11.7784 8.31447 11.7791 8.2864 11.7863 8.25965C11.7935 8.23291 11.807 8.20826 11.8256 8.18776C11.9055 8.10511 11.9648 8.00466 11.9984 7.89467C12.0319 7.78469 12.0388 7.6683 12.0187 7.5551V7.55946ZM6.89198 12.5204C6.95541 12.3278 6.97987 12.1246 6.96397 11.9226C6.97812 11.8504 6.96683 11.7756 6.93203 11.7107C6.89724 11.6459 6.84107 11.5952 6.77308 11.567C6.44843 11.3753 6.16545 11.1205 5.94081 10.8177C5.91354 10.786 5.89391 10.7457 5.84264 10.7457C5.79137 10.7457 5.80119 10.7086 5.80119 10.6748C5.7881 10.5406 5.77174 10.4075 5.76192 10.2733C5.75977 10.1991 5.78064 10.126 5.82164 10.0641C5.86266 10.0022 5.9218 9.95454 5.99099 9.92757C6.07607 9.89593 6.12734 9.86321 6.09134 9.76068C6.08418 9.72428 6.08681 9.68663 6.09898 9.6516C6.10364 9.63224 6.10317 9.61199 6.09763 9.59286C6.09208 9.57373 6.08164 9.55638 6.06734 9.54252C5.93208 9.40181 5.93208 9.39853 5.81646 9.5567C5.77937 9.60687 5.75101 9.62105 5.70084 9.57415C5.56297 9.44696 5.39646 9.35491 5.21544 9.30582C5.15435 9.28836 5.12708 9.25564 5.13799 9.19674C5.14367 9.1601 5.13819 9.1226 5.12223 9.08912C5.10627 9.05566 5.08059 9.02777 5.04855 9.00912C4.93453 8.91015 4.7944 8.84616 4.64495 8.82478C4.61198 8.8234 4.58013 8.81241 4.55333 8.79315C4.41475 8.68855 4.26098 8.60579 4.09738 8.54772C4.06469 8.52789 4.0262 8.5198 3.9883 8.52481C3.74563 8.53184 3.50592 8.47021 3.29674 8.34701C3.19032 8.32248 3.09773 8.25726 3.03881 8.16531C2.9799 8.07337 2.95932 7.962 2.9815 7.85507C2.98763 7.75991 2.95587 7.66619 2.89315 7.59437C2.75738 7.42406 2.6757 7.21702 2.65863 6.99989C2.65863 6.84936 2.53319 6.82427 2.44047 6.76319C2.40884 6.74137 2.40229 6.76973 2.4012 6.79482C2.36624 6.95562 2.39024 7.12364 2.46883 7.26822C2.5456 7.39021 2.61446 7.517 2.67499 7.64782C2.68699 7.67072 2.70771 7.69581 2.68044 7.71763C2.65317 7.73944 2.6379 7.71763 2.61936 7.70345C2.46556 7.57583 2.29212 7.47329 2.14596 7.33476C2.13115 7.32476 2.11904 7.31127 2.11067 7.29548C2.10229 7.2797 2.09793 7.26209 2.09796 7.24423C2.14377 6.73592 2.03251 6.23634 2.03906 5.73348C2.02404 5.48271 2.08525 5.23325 2.21468 5.01793C2.33199 4.82095 2.41636 4.60615 2.46447 4.382C2.47974 4.32636 2.49719 4.28164 2.57355 4.29473C2.62372 4.30346 2.62372 4.27073 2.62372 4.23583V3.81915C2.62372 3.78206 2.62372 3.74607 2.65863 3.72316C2.76278 3.64219 2.83345 3.52569 2.85715 3.39592C2.87822 3.31203 2.92563 3.2371 2.99241 3.18213C3.08294 3.11123 3.15275 3.02069 3.23456 2.94434C3.84632 2.36753 4.58275 1.93941 5.38669 1.6932C5.42487 1.6812 5.46305 1.66266 5.46305 1.73247C5.46305 1.76301 5.50122 1.76301 5.52522 1.77174C5.6343 1.80773 5.74338 1.84373 5.85246 1.88082C5.92887 1.90169 6.00948 1.90169 6.08589 1.88082C6.19215 1.85902 6.30269 1.87565 6.39785 1.92772C6.44476 1.95499 6.46657 1.94299 6.48075 1.89172C6.50039 1.823 6.53529 1.75756 6.54947 1.68666C6.56027 1.64896 6.57887 1.61394 6.60404 1.58388C6.62922 1.55382 6.66043 1.52938 6.69564 1.51213C6.74254 1.4794 6.76872 1.49031 6.7709 1.54812C6.77308 1.60594 6.7709 1.66593 6.7709 1.72592C6.7709 1.835 6.79817 1.85791 6.90616 1.84918C6.99451 1.84264 7.08178 1.82737 7.17013 1.81646C7.19304 1.81646 7.21703 1.80664 7.23231 1.83173C7.24758 1.85682 7.22576 1.87318 7.21158 1.88954C7.14613 1.96262 7.0785 2.03462 7.01415 2.1077C7.00368 2.11998 6.99032 2.1295 6.97529 2.1354C6.96026 2.1413 6.94401 2.1434 6.92798 2.14151C6.88871 2.14151 6.84944 2.14151 6.81017 2.14151C6.67927 2.14151 6.67709 2.14151 6.71309 2.26259C6.72618 2.3095 6.71309 2.32913 6.66619 2.33677C6.60183 2.34658 6.53747 2.36513 6.47312 2.37385C6.27537 2.39385 6.09014 2.47992 5.94736 2.61819C5.87999 2.67865 5.8295 2.75558 5.80082 2.84144C5.77213 2.9273 5.76624 3.01914 5.78374 3.10795C5.79028 3.13631 5.8001 3.15049 5.82737 3.14504C5.90984 3.1418 5.9905 3.16986 6.05316 3.22358C6.11569 3.26568 6.18051 3.30428 6.24732 3.3392C6.32775 3.37334 6.39363 3.43462 6.4335 3.51236C6.47337 3.5901 6.48469 3.67937 6.46548 3.76461C6.45808 3.80936 6.46535 3.85531 6.48618 3.8956C6.50702 3.9359 6.54031 3.96838 6.5811 3.98822C6.61601 4.01222 6.63128 4.01222 6.65746 3.97731C6.68743 3.94361 6.70985 3.90388 6.7232 3.86079C6.73656 3.81771 6.74056 3.77227 6.73491 3.72752C6.7235 3.68602 6.72845 3.64172 6.74875 3.60377C6.76904 3.56581 6.80313 3.53709 6.84398 3.52354C6.92133 3.49614 6.98557 3.44069 7.02396 3.36815C7.06235 3.29562 7.07208 3.21132 7.05123 3.13195C7.04416 3.09715 7.04529 3.06118 7.05457 3.02691C7.06385 2.99262 7.08101 2.96099 7.10468 2.93452C7.15554 2.85684 7.1779 2.76394 7.16795 2.67164C7.16795 2.62037 7.16795 2.57019 7.2334 2.55601C7.3152 2.53747 7.38502 2.43494 7.4821 2.52002C7.49907 2.5357 7.51816 2.54892 7.53882 2.55929C7.6168 2.59312 7.6837 2.64818 7.73191 2.71818C7.78013 2.78819 7.80771 2.87033 7.81151 2.95524C7.81385 2.98408 7.82405 3.01173 7.841 3.03518C7.85796 3.05863 7.88102 3.07696 7.90768 3.08822C7.93434 3.09947 7.96357 3.10319 7.99219 3.09898C8.02083 3.09475 8.04775 3.08278 8.07003 3.06432C8.25328 2.95524 8.2631 2.95524 8.30782 3.16467C8.31975 3.24495 8.3502 3.32133 8.39678 3.3878C8.44335 3.45426 8.50476 3.50895 8.57616 3.54754C8.74575 3.6427 8.88551 3.78321 8.97975 3.95332C9.01138 4.00785 9.01684 4.04385 8.9732 4.08966C8.92957 4.13548 8.8903 4.21292 8.82159 4.25546C8.75084 4.30224 8.66591 4.3227 8.58161 4.31328C8.34382 4.28928 8.10385 4.27946 7.86824 4.23474C7.8485 4.22999 7.82784 4.23086 7.80857 4.23721C7.78931 4.24357 7.77219 4.25518 7.75916 4.27073C7.68941 4.33819 7.62522 4.41114 7.56718 4.48889C7.68214 4.47394 7.79446 4.4431 7.90096 4.39727C7.98374 4.37747 8.07049 4.38202 8.15075 4.41036C8.19765 4.42017 8.18893 4.45181 8.18238 4.48671C8.15075 4.69287 8.15075 4.69287 8.33727 4.79977L8.4998 4.89248C8.51725 4.9023 8.5358 4.91212 8.53471 4.93612C8.53362 4.96011 8.51289 4.96666 8.49326 4.97102C8.29738 5.01102 8.10673 5.07324 7.92496 5.15646C7.87369 5.17936 7.82897 5.139 7.78861 5.11719C7.69262 5.06374 7.61299 5.11719 7.541 5.15646C7.493 5.18154 7.50937 5.26008 7.51155 5.31353C7.51155 5.39643 7.4821 5.42261 7.40247 5.41715C7.35011 5.4117 7.29339 5.4237 7.2443 5.41715C7.16389 5.40488 7.08166 5.41533 7.00687 5.44734C6.93209 5.47933 6.86773 5.53159 6.82108 5.59822C6.65343 5.77121 6.54891 5.99561 6.52438 6.23525C6.51566 6.32033 6.48511 6.37159 6.39458 6.38687C6.31359 6.40134 6.23429 6.42401 6.15788 6.45449C6.08479 6.48285 5.98881 6.4654 5.93972 6.55048C5.83896 6.69793 5.79624 6.87739 5.81973 7.05443C5.82546 7.09672 5.83646 7.13812 5.85246 7.17769C5.87381 7.236 5.881 7.29857 5.87341 7.36021C5.86583 7.42184 5.84369 7.4808 5.80883 7.53219C5.78483 7.58455 5.75865 7.58019 5.72047 7.54419C5.60714 7.44305 5.52217 7.31409 5.47395 7.17005C5.45146 7.10355 5.41027 7.04493 5.35534 7.00121C5.3004 6.95749 5.23403 6.93051 5.16417 6.92353C4.97883 6.87822 4.78387 6.89351 4.60787 6.96716C4.5286 6.98803 4.44504 6.98613 4.3668 6.96171C4.27731 6.95759 4.18788 6.97117 4.10365 7.00168C4.01942 7.03219 3.94204 7.07903 3.87595 7.13951C3.84759 7.16023 3.85195 7.19078 3.85086 7.22023C3.84684 7.43871 3.85559 7.65724 3.87704 7.8747C3.87971 7.91069 3.89612 7.94427 3.92285 7.96851C3.98612 8.03068 4.05156 8.09068 4.11047 8.15613C4.12916 8.17844 4.15308 8.19581 4.18011 8.20665C4.20713 8.2175 4.23642 8.2215 4.26536 8.2183C4.29732 8.21995 4.329 8.21159 4.35597 8.19438C4.38296 8.17718 4.4039 8.15198 4.41589 8.12231C4.46191 8.02971 4.53284 7.95178 4.62069 7.89725C4.70856 7.84272 4.80988 7.81376 4.91329 7.81362C4.97655 7.81362 4.97219 7.83871 4.96128 7.8867C4.90775 8.0798 4.83465 8.26693 4.74312 8.44518C4.70931 8.51609 4.73004 8.53027 4.79875 8.53572C4.96637 8.52972 5.13361 8.55526 5.29179 8.61098C5.34415 8.63607 5.37142 8.66225 5.36597 8.72006C5.36508 8.73641 5.36508 8.7528 5.36597 8.76915C5.3736 9.03966 5.37469 9.03748 5.59721 9.19019C5.61609 9.20435 5.63905 9.21201 5.66266 9.21201C5.68626 9.21201 5.70923 9.20435 5.72811 9.19019C5.87427 9.10838 5.87864 9.10729 6.00844 9.22401C6.0728 9.28291 6.11752 9.28946 6.16988 9.21528C6.1786 9.20219 6.19496 9.19347 6.20369 9.18038C6.26425 9.10886 6.34035 9.05214 6.42617 9.01452C6.512 8.9769 6.60529 8.95938 6.69891 8.96331C6.75018 8.95567 6.77417 8.97094 6.76872 9.02548C6.76327 9.08002 6.75999 9.13456 6.75454 9.20874C6.84071 9.14983 6.91379 9.09966 6.98361 9.05057C6.99885 9.03875 7.01669 9.0307 7.03566 9.0271C7.05462 9.0235 7.07415 9.02444 7.09268 9.02985C7.35885 9.10145 7.63139 9.14676 7.90641 9.16511C7.95614 9.16547 8.00381 9.185 8.03949 9.21964L8.05476 9.23164C8.29761 9.469 8.6083 9.62492 8.94375 9.67778C9.01465 9.68759 9.04083 9.72795 9.06156 9.79558C9.09209 9.86577 9.10112 9.94344 9.08753 10.0188C9.07395 10.0941 9.03834 10.1637 8.9852 10.2188C9.01138 10.2548 9.03974 10.2406 9.06374 10.2406C9.31026 10.2406 9.55678 10.2483 9.8022 10.2406C9.83615 10.2387 9.87006 10.2451 9.90103 10.2591C9.93199 10.2732 9.95909 10.2945 9.98 10.3213C10.0435 10.3978 10.1112 10.4706 10.1829 10.5395C10.2363 10.5897 10.2374 10.6235 10.1916 10.6846C10.0693 10.8406 9.92189 10.9752 9.7553 11.0827C9.652 11.1471 9.5718 11.2426 9.52623 11.3554C9.48478 11.4722 9.4183 11.5785 9.33144 11.6668C9.24457 11.7552 9.13943 11.8236 9.02338 11.867C8.90676 11.9259 8.78032 11.9629 8.65033 11.9761C8.61006 11.9739 8.56999 11.9829 8.53455 12.0022C8.49913 12.0214 8.46973 12.0502 8.44963 12.0851C8.42886 12.1185 8.39946 12.1457 8.36454 12.1637L7.78424 12.4986C7.72012 12.5241 7.65141 12.536 7.58245 12.5335C7.37042 12.5594 7.15678 12.5696 6.94325 12.564C6.91816 12.564 6.85707 12.5782 6.88762 12.5215L6.89198 12.5204ZM6.34658 1.70629C6.35749 1.76519 6.32913 1.78483 6.26914 1.78483C6.10506 1.78242 5.94123 1.7715 5.77828 1.7521C5.69975 1.74556 5.69211 1.69102 5.68666 1.64302C5.6812 1.59503 5.73356 1.5983 5.76083 1.59176C6.00243 1.53514 6.24775 1.49577 6.49493 1.47395C6.48882 1.48991 6.47961 1.5045 6.46781 1.51686C6.45601 1.52922 6.44188 1.5391 6.42621 1.54594C6.39704 1.56006 6.37338 1.58348 6.35898 1.61249C6.34457 1.64152 6.3402 1.67451 6.34658 1.70629ZM9.83711 2.74581C9.88075 2.83783 9.89776 2.94023 9.8862 3.04142C9.88675 3.05926 9.88321 3.077 9.87583 3.09326C9.86846 3.10952 9.85745 3.12388 9.84365 3.13522C9.74221 3.22685 9.74657 3.22249 9.6375 3.13522C9.30967 2.84747 9.01908 2.51988 8.7725 2.16006C8.65524 2.02796 8.54666 1.88841 8.44744 1.74229C8.40927 1.67902 8.31982 1.66702 8.25001 1.61794C8.26713 1.61009 8.28572 1.60603 8.30455 1.60603C8.32338 1.60603 8.34198 1.61009 8.35909 1.61794C8.90595 1.75728 9.42881 1.9779 9.91019 2.27241C9.97564 2.31168 9.98764 2.34876 9.95491 2.40985C9.91019 2.50038 9.90801 2.61055 9.82293 2.68036C9.79675 2.70109 9.81966 2.72945 9.83711 2.74581ZM9.44006 4.85758C9.41388 4.87721 9.38989 4.85758 9.36807 4.84667C9.3141 4.80605 9.25239 4.77687 9.18675 4.76092C9.12109 4.74499 9.05289 4.74261 8.98629 4.75395H8.90776C8.73323 4.75395 8.70814 4.73432 8.69614 4.55979C8.69614 4.54998 8.69614 4.53689 8.69614 4.53143C8.77323 4.45603 8.85848 4.38945 8.9503 4.33291C8.99175 4.30019 9.02993 4.34164 9.0681 4.35363C9.1663 4.38599 9.25343 4.44526 9.31957 4.52471C9.38573 4.60417 9.42823 4.7006 9.44224 4.80304C9.44224 4.82267 9.45861 4.8434 9.44224 4.85649L9.44006 4.85758ZM8.382 2.13061C8.41146 2.1765 8.42711 2.22988 8.42711 2.28441C8.42711 2.33894 8.41146 2.39232 8.382 2.43821C8.35909 2.46002 8.33946 2.44584 8.31982 2.43821L8.13875 2.35313L8.22383 2.57129C8.2289 2.57985 8.23186 2.58949 8.23243 2.59943C8.233 2.60936 8.23117 2.61929 8.22712 2.62838C8.22306 2.63746 8.21687 2.64544 8.20909 2.65163C8.20131 2.65784 8.19214 2.66207 8.18238 2.664C8.0733 2.70654 7.97077 2.73599 7.87587 2.62037C7.74382 2.4918 7.58358 2.39581 7.40792 2.34004C7.33375 2.30622 7.32284 2.27241 7.38611 2.22332C7.47576 2.13291 7.52995 2.01329 7.53882 1.88627C7.54109 1.86415 7.53873 1.8418 7.5319 1.82065C7.52507 1.79949 7.51392 1.77997 7.49916 1.76336C7.48439 1.74675 7.46631 1.73337 7.4461 1.72411C7.42589 1.71485 7.40397 1.7099 7.38174 1.70956C7.25412 1.70956 7.12541 1.70956 6.99779 1.70956C6.96615 1.70956 6.91489 1.73247 6.90725 1.6812C6.89961 1.62993 6.8778 1.57212 6.93343 1.5274C6.96019 1.50103 6.99215 1.48053 7.02726 1.4672C7.06238 1.45387 7.09989 1.44799 7.13741 1.44995C7.24649 1.46304 7.35556 1.46304 7.47119 1.47177C7.53793 1.47347 7.60361 1.48898 7.66406 1.51733C7.72451 1.54568 7.77843 1.58625 7.82242 1.63648C7.98277 1.82191 8.20093 1.95717 8.382 2.12952V2.13061ZM8.14857 8.80296C8.13657 8.84878 8.18347 8.92731 8.11475 8.93713C8.04603 8.94695 8.05912 8.86077 8.04167 8.81605C8.01113 8.73752 7.99368 8.65462 7.96968 8.57281C7.96422 8.55317 7.95877 8.53463 7.9784 8.51936C7.99804 8.50409 8.0144 8.51936 8.03185 8.52808C8.07582 8.54217 8.11259 8.57282 8.13438 8.61354C8.15616 8.65424 8.16125 8.70184 8.14857 8.74624C8.15011 8.76366 8.15011 8.78118 8.14857 8.7986V8.80296ZM7.75807 8.38192C7.75807 8.42882 7.69807 8.4201 7.66426 8.43646C7.64048 8.44644 7.61607 8.45483 7.59117 8.46155C7.47337 8.50081 7.41556 8.46155 7.38611 8.34156C7.38611 8.32083 7.37847 8.30011 7.40029 8.29138C7.45374 8.26739 7.50937 8.24666 7.55845 8.22594C7.59967 8.23051 7.64005 8.24078 7.67844 8.25648C7.70136 8.26879 7.72073 8.2868 7.73467 8.30877C7.74862 8.33074 7.75667 8.35594 7.75807 8.38192ZM7.30866 8.27284C7.18368 8.35443 7.03539 8.39275 6.88653 8.38192C6.8189 8.36883 6.73272 8.41682 6.70545 8.30884C6.69782 8.27938 6.69564 8.25975 6.72509 8.24448C6.8099 8.18871 6.90679 8.15398 7.00771 8.14316C7.10864 8.13235 7.21069 8.14576 7.30539 8.1823C7.3752 8.21612 7.34793 8.24121 7.30866 8.27393V8.27284ZM6.33459 8.19976C6.29351 8.2129 6.24911 8.21113 6.20921 8.19478C6.16931 8.17842 6.13646 8.14851 6.11643 8.11031C6.05724 8.03472 5.98294 7.97232 5.89827 7.92706C5.88183 7.91779 5.86365 7.91204 5.84488 7.91016C5.8261 7.90829 5.80713 7.91033 5.78919 7.91615C5.66598 7.93257 5.54468 7.96107 5.42705 8.00123C5.31797 8.03832 5.29615 7.94778 5.2547 7.89215C5.21325 7.83652 5.28416 7.81907 5.30924 7.78308C5.4325 7.63036 5.60267 7.674 5.75429 7.70018C6.06576 7.76495 6.35874 7.89876 6.61165 8.09177C6.63237 8.10595 6.66291 8.11686 6.6531 8.14958C6.64328 8.1823 6.61165 8.17685 6.58765 8.17685C6.52875 8.17685 6.46984 8.17685 6.40985 8.17685V8.19976C6.38392 8.20093 6.35807 8.20349 6.3324 8.20739L6.33459 8.19976ZM6.36076 8.37865C6.36076 8.40373 6.33677 8.4081 6.31822 8.41246C6.24514 8.42991 6.17206 8.44737 6.10007 8.46155C6.01633 8.43908 5.94067 8.39332 5.88191 8.32956C5.87318 8.3012 5.88191 8.28484 5.91354 8.28375C5.94517 8.28266 5.98553 8.28375 6.02262 8.28375C6.12178 8.28378 6.22011 8.3019 6.31277 8.3372C6.33459 8.34265 6.35858 8.3481 6.3564 8.37865H6.36076Z" fill="#999999" stroke="black" stroke-width="0.218159" mask="url(#path-2-inside-1_260_31)"/>
</svg>
