<svg width="12" height="12" viewBox="0 0 12 12" fill="none" xmlns="http://www.w3.org/2000/svg">
<path d="M11.95 6C11.95 9.28609 9.28609 11.95 6 11.95C2.71391 11.95 0.05 9.28609 0.05 6C0.05 2.71391 2.71391 0.05 6 0.05C9.28609 0.05 11.95 2.71391 11.95 6Z" fill="#FFFBFB" stroke="#D0C7C7" stroke-width="0.1"/>
<path d="M3.25 7.5C3.94036 7.5 4.5 6.94036 4.5 6.25C4.5 5.55964 3.94036 5 3.25 5C2.55964 5 2 5.55964 2 6.25C2 6.94036 2.55964 7.5 3.25 7.5Z" fill="#707070"/>
<path d="M6.25 7.5C6.94036 7.5 7.5 6.94036 7.5 6.25C7.5 5.55964 6.94036 5 6.25 5C5.55964 5 5 5.55964 5 6.25C5 6.94036 5.55964 7.5 6.25 7.5Z" fill="#707070"/>
<path d="M9.25 7.5C9.94036 7.5 10.5 6.94036 10.5 6.25C10.5 5.55964 9.94036 5 9.25 5C8.55964 5 8 5.55964 8 6.25C8 6.94036 8.55964 7.5 9.25 7.5Z" fill="#707070"/>
</svg>
