<svg width="37" height="37" viewBox="0 0 37 37" fill="none" xmlns="http://www.w3.org/2000/svg">
<path d="M21.8819 17.731C21.8949 17.6492 21.8863 17.5655 21.8569 17.4881C21.8275 17.4107 21.7784 17.3423 21.7144 17.2898C21.6503 17.2373 21.5737 17.2025 21.492 17.1889C21.4104 17.1752 21.3265 17.1832 21.2489 17.212C16.5209 19.183 13.7879 24.003 13.3559 24.805C13.3154 24.8791 13.2957 24.9627 13.2989 25.047L13.6309 35.693V35.733C15.0795 36.099 16.5678 36.284 18.0619 36.284C18.9751 36.2836 19.887 36.2147 20.7899 36.078C20.8123 35.9888 20.822 35.8969 20.8189 35.805C20.7686 29.7633 21.1237 23.7251 21.8819 17.731V17.731Z" fill="url(#paint0_linear_277_34)"/>
<path d="M18.066 15.853C20.9246 15.853 23.242 13.5406 23.242 10.688C23.242 7.83545 20.9246 5.523 18.066 5.523C15.2074 5.523 12.89 7.83545 12.89 10.688C12.89 13.5406 15.2074 15.853 18.066 15.853Z" fill="url(#paint1_linear_277_34)"/>
<path d="M31.621 30.144L31.698 30.058C31.85 29.874 31.998 29.691 32.15 29.507L32.161 29.492C34.2913 26.8268 35.6276 23.6153 36.0165 20.2256C36.4055 16.8359 35.8315 13.4052 34.3602 10.3267C32.8889 7.2483 30.58 4.64673 27.6981 2.82026C24.8161 0.993798 21.4779 0.0163599 18.066 0C14.6661 0.0183725 11.3396 0.990657 8.46502 2.80623C5.59043 4.62181 3.28315 7.20777 1.80569 10.2699C0.328231 13.332 -0.260086 16.7474 0.107676 20.1274C0.475438 23.5074 1.78451 26.7163 3.88596 29.389L3.92596 29.439C4.02596 29.573 4.13896 29.703 4.24696 29.834L4.39396 30.007C4.49396 30.124 4.59396 30.238 4.69396 30.352C4.79396 30.466 4.87796 30.558 4.97796 30.659L4.99996 30.676C7.02342 32.8069 9.536 34.4123 12.32 35.353V32C9.1317 30.6452 6.50707 28.234 4.88728 25.1718C3.2675 22.1096 2.75131 18.5832 3.42551 15.1852C4.0997 11.7872 5.92316 8.72499 8.58936 6.5132C11.2556 4.30142 14.6019 3.07496 18.066 3.04C21.6805 3.07352 25.1627 4.40453 27.8781 6.79049C30.5934 9.17646 32.3612 12.4586 32.8593 16.0388C33.3574 19.619 32.5527 23.259 30.5917 26.2956C28.6307 29.3321 25.6441 31.5631 22.176 32.582V35.82C25.4422 35.0539 28.4299 33.3916 30.803 31.02C30.876 30.945 30.95 30.871 31.021 30.796C31.092 30.721 31.205 30.612 31.28 30.523C31.4 30.4 31.509 30.271 31.621 30.144Z" fill="url(#paint2_linear_277_34)"/>
<defs>
<linearGradient id="paint0_linear_277_34" x1="14.106" y1="22.9511" x2="25.5546" y2="25.2663" gradientUnits="userSpaceOnUse">
<stop stop-color="#055B8F"/>
<stop offset="1" stop-color="#79CDE4"/>
</linearGradient>
<linearGradient id="paint1_linear_277_34" x1="14.4118" y1="7.03118" x2="21.7047" y2="14.3603" gradientUnits="userSpaceOnUse">
<stop stop-color="#055B8F"/>
<stop offset="1" stop-color="#79CDE4"/>
</linearGradient>
<linearGradient id="paint2_linear_277_34" x1="5.27664" y1="5.33718" x2="30.6341" y2="31.1697" gradientUnits="userSpaceOnUse">
<stop stop-color="#055B8F"/>
<stop offset="1" stop-color="#79CDE4"/>
</linearGradient>
</defs>
</svg>
